<svg id="Layer_1" data-name="Layer 1" xmlns="http://www.w3.org/2000/svg" viewBox="0 0 2706.27 822.08"><defs><style>.cls-1{fill:#2490cf;}.cls-2{fill:#e47825;}.cls-3{fill:#019147;}.cls-4{fill:#e57b2b;}.cls-5{fill:#7fbee3;}.cls-6{fill:#ea914e;}.cls-7{font-size:125px;fill:#2c3e50;font-family:Poppins-SemiBoldItalic, Poppins;font-weight:700;font-style:italic;}</style></defs><title>lambang_bps</title><path class="cls-1" d="M353.62,300.27l-1.87,7.82,5.63-3.22.2.34a3.19,3.19,0,0,1-.7.6c-4.41,2-6,5.54-6.95,10.15-2.79,14-6,27.95-9.14,41.89-.4,1.75-.17,2.21,1.68,2.25q28.15.68,56.3,1.51,27,.76,53.94,1.55c3.57.1,8,5.19,7.55,8.59q-9.49,68-25,134.94a133.18,133.18,0,0,1-4.43,15.58c-4,11-12.11,16.54-23.49,18-13.06,1.73-26.16,1.06-39.24.79-14.23-.29-28.45-.92-42.67-1.34q-23.57-.7-47.15-.6c-.33,0-.66-.06-1.28-.12,2.79-5.73,7.41-8.74,13.16-10.33,5.45-1.5,11-2.71,16-5.5,9-5,15.48-12.6,21.46-20.75,6.46-8.82,9.27-19.07,11.71-29.44a372,372,0,0,0,8-52.45c1.19-13.31,2-26.63,2.1-40,0-2-.46-2.65-2.57-2.64q-39.17.35-78.33.51a4.26,4.26,0,0,0-3.24,1.3C241.66,403,220.41,428.16,203.8,457c-9.63,16.71-17.26,34.25-21.31,53.18-4.4,20.58-4,40.9,3.95,60.67a93.34,93.34,0,0,0,26,35.91c19.31,16.71,42.21,26.13,66.56,32.58a155.22,155.22,0,0,0,17.88,3.81c.79.84.45,1.82.26,2.72-1.75,8.35-3.53,16.69-5.21,25.06-.13.67,0,1.65-1.13,1.7.07-1.31-.86-1.22-1.75-1.31-17.19-1.83-34.21-4.64-50.8-9.58-22.2-6.6-43-16-60.35-31.78-15.78-14.33-26-31.91-29.8-53.05-3.83-21.46-.53-42.2,6.51-62.52,8.83-25.5,22.75-48.18,39-69.54,17.6-23.17,37.79-43.92,59.34-63.4.71-.64,1.42-1.29,2.12-1.95.1-.1.13-.28.34-.8H242.82c-2.36,0-4.72-.06-7.07.06-1.65.08-1.9-.6-1.6-2q3.49-17.3,6.91-34.62,10.65-53.73,21.3-107.46c1.85-9.32,3.78-18.62,5.52-28,.35-1.89,1.09-2.33,2.9-2.32q50.82.29,101.65.43c1.83,0,2.09.4,1.69,2.19q-9.46,42.49-18.78,85c-.41,1.87-.77,3.75-1.16,5.62C354.86,298.68,354.21,299.47,353.62,300.27Z"/><path class="cls-2" d="M353.62,300.27l.56-2.66c14.58-6.23,29.11-12.58,43.88-18.37a873.73,873.73,0,0,1,115.5-36.67,2.94,2.94,0,0,0,2.48-2.53c2.68-11.1,5.5-22.16,8.15-33.27.44-1.84,1.07-2.5,3.07-2.51q53.32-.25,106.65-.67c10.39-.07,20.79-.2,31.18-.3a22.31,22.31,0,0,1,3.95.22c-12.62,8.25-26.42,14.31-40,22.15,1.3.07,2,.15,2.72.13a395.23,395.23,0,0,1,43.72,1.11c26,2.31,51.44,7.28,75.37,18.23,18.71,8.56,35,20.3,47.24,37.08a97.36,97.36,0,0,1,17.18,40.59c4.06,22.42,1.31,44.32-5,65.93-7.18,24.63-18.5,47.37-32,69.07-3.88,6.22-7.88,12.37-12.18,18.3-.44.61-.71,1.39-1.54,1.73-.25-1.1.52-1.83.92-2.63,10.4-20.64,18.73-42.05,23.34-64.75,5.47-27,5.67-53.75-4.55-79.85a108,108,0,0,0-30-42.31c-17.47-15.29-37.89-25-59.94-31.55-21.09-6.29-42.7-9.48-64.64-10.58l-.79,0c-2.6-.1-5.89-1.55-7.58,0s-1.51,4.81-2.11,7.34q-12.06,50.76-22.3,101.92c-.38,1.88-.69,3.78-1.14,5.64s-.16,2.74,2.16,2.7c14.23-.27,28.47-.39,42.71-.55,20.44-.22,40.88-.36,61.31-.7a12.41,12.41,0,0,1,8.83,3.81c1.88,1.87,2.37,5.63,1.7,8.83q-4.56,21.76-9.14,43.51-11.42,54.52-22.8,109a44.6,44.6,0,0,1-3.38,9c-.2.45-.69,1.17-1,1.14-2.93-.39-5.16,1.9-8,1.9q-44.55-.06-89.1.1c-2.5,0-2.94-.48-2.48-3q12-66.8,23.88-133.64c1.47-8.22,3-16.44,4.51-24.93-7.66,0-15.07,0-22.49,0-30.48-.22-61-.8-91.45-.33-5.58.09-5.54.09-4.35-5.37Q496.9,326,507.07,279.34c1.64-7.49,3.3-15,5.09-22.44.53-2.23-.16-2.54-2.14-2.17a841.64,841.64,0,0,0-139,39.05Z"/><path class="cls-3" d="M290.79,672.61l6.09-29.48q5.51-26.23,11-52.46c2.32-11.09,4.64-22.18,6.86-33.29.35-1.76,1.19-2.16,2.81-2.21,12.57-.38,25.14-.84,37.71-1.26L427,551.48c5.5-.18,11-.41,16.5-.48,1.68,0,2.41-.52,2.77-2.24Q459.59,486,473,423.2c1.55-7.24,3.57-14.38,5.22-21.6.47-2.06,1.82-1.7,3.16-1.69l82.53.89c5.07.05,10.13.13,15.2.09,1.51,0,1.88.27,1.58,1.89Q570.36,458,559.2,513.16c-3,14.61-6.06,29.19-9.11,43.78-.23,1.11-.56,2.19-.85,3.29a4.57,4.57,0,0,1-4.11,3.77,16.39,16.39,0,0,0-6.82,2.52,5.52,5.52,0,0,1-3.26.71c-36.16.11-72.32.27-108.48.25-2.9,0-3.79.93-4.39,3.56-5.78,25.32-11.68,50.61-17.55,75.9a4.92,4.92,0,0,1,.06,3.06c-1.14,5.33-2.49,10.6-3.63,15.93a3.75,3.75,0,0,1-1.25,2.21q-6.63,28.77-13.24,57.54c-.37,1.62-.77,2.49-2.79,2.5q-50.66.21-101.32.6c-3.46,0-3.44,0-2.71-3.49Q285.29,699,290.79,672.61Z"/><path class="cls-1" d="M399.82,668.15l4.82-21.21c3.49.92,6.92-.16,10.34-.47,20.51-1.84,40.85-5,61.07-8.82,18.32-3.49,36.46-7.83,54.47-12.66,26.53-7.11,52.62-15.59,78.34-25.2a909.36,909.36,0,0,0,92-40.08,2,2,0,0,1,1.62-.22c-1.46.89-2.89,1.82-4.37,2.68a879.17,879.17,0,0,1-107.17,52.69,846.27,846.27,0,0,1-110.42,37.07q-31.15,8-62.86,13.44C411.71,666.38,405.76,667.23,399.82,668.15Z"/><path class="cls-4" d="M761,469l-6.07,6.19C755.59,471.36,758,468.77,761,469Z"/><path class="cls-5" d="M703.43,558.74a6.14,6.14,0,0,1,3.53-2A6.51,6.51,0,0,1,703.43,558.74Z"/><path class="cls-6" d="M367.56,283.46c-.84-.67-1.34-1.45-.75-2.44a.72.72,0,0,1,.68-.17C368.55,281.67,367.21,282.55,367.56,283.46Z"/><text class="cls-7" transform="translate(918.14 411.04)">BADAN PUSAT STATISTIK<tspan x="0" y="125.95">KABUPATEN ACEH SINGKIL</tspan></text></svg>